HIERARCHY
ROOT Hips
{
	OFFSET 0.00000 0.00000 0.00000
	CHANNELS 6 Xposition Yposition Zposition Zrotation Yrotation Xrotation 
	JOINT LHipJoint
	{
		OFFSET 0 0 0
		CHANNELS 3 Zrotation Yrotation Xrotation
		JOINT LeftHip
		{
			OFFSET 1.46561 -1.72757 0.83774
			CHANNELS 3 Zrotation Yrotation Xrotation
			JOINT LeftKnee
			{
				OFFSET 2.48915 -6.83890 0.00000
				CHANNELS 3 Zrotation Yrotation Xrotation
				JOINT LeftAnkle
				{
					OFFSET 2.60555 -7.15868 0.00000
					CHANNELS 3 Zrotation Yrotation Xrotation
					JOINT LeftToe
					{
						OFFSET 0.19248 -0.52884 2.26738
						CHANNELS 3 Zrotation Yrotation Xrotation
						End Site
						{
							OFFSET 0.00000 -0.00000 1.17015
						}
					}
				}
			}
		}
	}
	JOINT RHipJoint
	{
		OFFSET 0 0 0
		CHANNELS 3 Zrotation Yrotation Xrotation
		JOINT RightHip
		{
			OFFSET -1.46918 -1.72757 0.83774
			CHANNELS 3 Zrotation Yrotation Xrotation
			JOINT RightKnee
			{
				OFFSET -2.49034 -6.84216 0.00000
				CHANNELS 3 Zrotation Yrotation Xrotation
				JOINT RightAnkle
				{
					OFFSET -2.65971 -7.30750 0.00000
					CHANNELS 3 Zrotation Yrotation Xrotation
					JOINT RightToe
					{
						OFFSET -0.19227 -0.52827 2.30785
						CHANNELS 3 Zrotation Yrotation Xrotation
						End Site
						{
							OFFSET -0.00000 -0.00000 1.18972
						}
					}
				}
			}
		}
	}
	JOINT lowerback
	{
		OFFSET 0 0 0
		CHANNELS 3 Zrotation Yrotation Xrotation
		JOINT Chest
		{
			OFFSET 0.02432 2.19909 -0.28000
			CHANNELS 3 Zrotation Yrotation Xrotation
			JOINT Chest2
			{
				OFFSET 0.03714 2.21816 -0.15261
				CHANNELS 3 Zrotation Yrotation Xrotation
				JOINT lowerneck
				{
					OFFSET 0 0 0
					CHANNELS 3 Zrotation Yrotation Xrotation
					JOINT Neck
					{
						OFFSET -0.01896 1.56165 0.21681
						CHANNELS 3 Zrotation Yrotation Xrotation
						JOINT Head
						{
							OFFSET 0.02744 1.56009 0.06764
							CHANNELS 3 Zrotation Yrotation Xrotation
							End Site
							{
								OFFSET 0.01212 1.60574 0.00298
							}
						}
					}
				}
				JOINT LeftCollar
				{
					OFFSET 0 0 0
					CHANNELS 3 Zrotation Yrotation Xrotation
					JOINT LeftShoulder
					{
						OFFSET 3.05595 1.48048 -0.60794
CHANNELS 3 Zrotation Xrotation Yrotation
						JOINT LeftElbow
						{
OFFSET 0 -5.206070 -0.000000
CHANNELS 3 Zrotation Xrotation Yrotation
							JOINT LeftWrist
							{
OFFSET 0 -3.399610 0.000000
CHANNELS 3 Zrotation Xrotation Yrotation
								JOINT lhand
								{
									OFFSET 0 0 0
CHANNELS 3 Zrotation Xrotation Yrotation
									JOINT LFingers
									{
OFFSET 0 -0.519690 0.000000
CHANNELS 3 Zrotation Xrotation Yrotation
										End Site
										{
OFFSET 0 -0.418990 0.000000
										}
									}
								}
								JOINT LThumb
								{
OFFSET 0 0.000000 0.000000
CHANNELS 3 Zrotation Xrotation Yrotation
									End Site
									{
OFFSET 0 -0.425390 0.425390
									}
								}
							}
						}
					}
				}
				JOINT RightCollar
				{
					OFFSET 0 0 0
					CHANNELS 3 Zrotation Yrotation Xrotation
					JOINT RightShoulder
					{
						OFFSET -2.99052 1.57608 -0.69102
CHANNELS 3 Zrotation Xrotation Yrotation
						JOINT RightElbow
						{
OFFSET 0 -5.322140 0.000000
CHANNELS 3 Zrotation Xrotation Yrotation
							JOINT RightWrist
							{
OFFSET 0 -3.512080 0.000000
CHANNELS 3 Zrotation Xrotation Yrotation
								JOINT rhand
								{
									OFFSET 0 0 0
CHANNELS 3 Zrotation Xrotation Yrotation
									JOINT RFingers
									{
OFFSET 0 -0.586680 0.000000
CHANNELS 3 Zrotation Xrotation Yrotation
										End Site
										{
OFFSET 0 -0.473000 0.000000
										}
									}
								}
								JOINT RThumb
								{
OFFSET 0 0.000000 0.000000
CHANNELS 3 Zrotation Xrotation Yrotation
									End Site
									{
OFFSET 0 -0.480220 0.480220
									}
								}
							}
						}
					}
				}
			}
		}
	}
}
MOTION
Frames: 11
Frame Time: 0.008333333333333333
0.484899 23.733649 -4.442984 -0.474634 -0.331638 9.644468 0.000000 0.000000 0.000000 -15.770239 -0.272881 -45.149622 9.117276 16.880789 56.492185 0.636051 4.987511 14.202547 0.014296 0.770258 2.116963 0.000000 0.000000 0.000000 18.685761 2.205636 -43.754396 -9.667917 -17.215732 58.368151 -0.566472 -5.167877 13.401101 -1.002153 -6.370256 17.862419 -3.072628 -0.147523 11.603394 1.599607 -0.487917 3.512182 3.468515 -0.243936 -2.788874 -2.349863 0.537488 -10.967700 0.320575 1.170894 25.327164 0.647079 0.350857 9.808864 0.000000 0.000000 0.000000 8.277331 -3.247836 -32.317057 7.814510 -13.251750 0.909211 22.529632 -17.013405 4.304340 0.000000 0.000000 0.000000 -7.125000 0.000000 0.000000 -3.098475 25.320440 -1.477469 0.000000 0.000000 0.000000 -5.814364 -1.791315 16.991165 -12.817778 -21.019667 -2.387517 -18.560308 47.040165 22.679573 0.000000 0.000000 0.000000 7.125000 0.000000 0.000000 10.891980 53.440334 -2.282175
0.489621 23.577877 -4.262957 -0.464081 -0.423603 9.788113 0.000000 0.000000 0.000000 -15.928494 -0.316680 -45.440954 8.342925 16.361186 53.781410 0.657571 4.506503 14.457051 0.007513 0.553980 1.522325 0.000000 0.000000 0.000000 18.716891 2.498248 -43.900334 -8.633730 -16.558785 54.803109 -0.569501 -5.573176 13.451179 -1.011153 -6.398066 17.943756 -3.013415 -0.133400 11.782305 1.571772 -0.467904 3.577905 3.404975 -0.234372 -2.820756 -2.285351 0.561766 -11.053096 0.271027 1.205825 25.297308 0.623104 0.367555 9.814811 0.000000 0.000000 0.000000 7.769293 -2.704405 -32.201207 7.634152 -12.958013 0.868330 22.797876 -16.878150 4.813436 0.000000 0.000000 0.000000 -7.125000 0.000000 0.000000 -2.896354 24.760490 -1.418455 0.000000 0.000000 0.000000 -5.437894 -1.323647 17.281085 -12.836644 -21.047405 -2.394275 -18.522845 46.932051 22.687868 0.000000 0.000000 0.000000 7.125000 0.000000 0.000000 10.933019 53.441877 -2.291347
0.494810 23.403004 -4.075400 -0.426798 -0.514705 9.960490 0.000000 0.000000 0.000000 -16.140638 -0.335182 -45.594834 7.513174 15.744298 50.781367 0.689230 3.952276 14.844453 0.002922 0.341038 0.937105 0.000000 0.000000 0.000000 18.701712 2.775439 -43.929072 -7.589688 -15.801657 51.058647 -0.586679 -6.032689 13.675682 -1.011690 -6.399624 17.948504 -2.977557 -0.124667 11.836678 1.545082 -0.454434 3.630881 3.355120 -0.228952 -2.796812 -2.251251 0.579882 -11.089645 0.240281 1.231916 25.245145 0.609495 0.379788 9.803301 0.000000 0.000000 0.000000 7.284631 -2.129788 -32.060844 7.460208 -12.674096 0.829731 22.991790 -16.530100 5.214955 0.000000 0.000000 0.000000 -7.125000 0.000000 0.000000 -2.752605 24.318115 -1.376217 0.000000 0.000000 0.000000 -5.118487 -0.765655 17.736162 -12.927800 -21.181307 -2.427155 -18.523017 46.622733 22.697650 0.000000 0.000000 0.000000 7.125000 0.000000 0.000000 10.936977 53.451735 -2.294832
0.500174 23.208761 -3.879743 -0.374104 -0.600596 10.162714 0.000000 0.000000 0.000000 -16.390751 -0.332862 -45.607679 6.645369 15.025008 47.518459 0.731651 3.368496 15.369794 0.000448 0.127248 0.349671 0.000000 0.000000 0.000000 18.651637 3.028949 -43.851132 -6.557790 -14.946860 47.179430 -0.624114 -6.491293 14.128108 -0.995754 -6.350594 17.805275 -2.951668 -0.118929 11.744873 1.523384 -0.442097 3.676057 3.314320 -0.225284 -2.701020 -2.250826 0.585722 -11.075950 0.231084 1.240971 25.182303 0.606797 0.383649 9.778146 0.000000 0.000000 0.000000 6.816935 -1.557484 -31.845681 7.293010 -12.400501 0.793347 23.031309 -15.982923 5.420264 0.000000 0.000000 0.000000 -7.125000 0.000000 0.000000 -2.724367 24.094040 -1.376336 0.000000 0.000000 0.000000 -4.846587 -0.150270 18.251652 -13.063264 -21.379814 -2.476289 -18.523127 46.178753 22.704274 0.000000 0.000000 0.000000 7.125000 0.000000 0.000000 10.939622 53.458574 -2.297249
0.505812 22.992175 -3.673413 -0.309360 -0.669064 10.394501 0.000000 0.000000 0.000000 -16.668793 -0.321596 -45.432921 5.759222 14.184159 43.994604 0.787105 2.819937 16.044349 0.000372 -0.092754 -0.254887 0.000000 0.000000 0.000000 18.557263 3.245050 -43.652992 -5.572358 -13.992642 43.224550 -0.691478 -6.892306 14.879224 -0.966308 -6.258482 17.536432 -2.920616 -0.112311 11.466991 1.506219 -0.423569 3.704917 3.272439 -0.219836 -2.520979 -2.264386 0.575705 -10.990896 0.228307 1.227695 25.150545 0.605868 0.376447 9.750636 0.000000 0.000000 0.000000 6.374545 -0.988196 -31.569420 7.131249 -12.135041 0.759054 22.978045 -15.325872 5.416272 0.000000 0.000000 0.000000 -7.125000 0.000000 0.000000 -2.763951 24.100691 -1.395880 0.000000 0.000000 0.000000 -4.606565 0.486715 18.656169 -13.191004 -21.566477 -2.523093 -18.489597 45.716905 22.694023 0.000000 0.000000 0.000000 7.125000 0.000000 0.000000 10.969137 53.441996 -2.299088
0.511611 22.755943 -3.456231 -0.238849 -0.723186 10.614055 0.000000 0.000000 0.000000 -16.953211 -0.300002 -45.036893 4.884308 13.241940 40.299273 0.855581 2.369166 16.836649 0.002248 -0.295457 -0.811846 0.000000 0.000000 0.000000 18.412804 3.437534 -43.304442 -4.656809 -12.975195 39.294832 -0.784499 -7.235128 15.846666 -0.944585 -6.189903 17.336495 -2.874554 -0.110229 11.039721 1.486403 -0.405910 3.731066 3.217838 -0.216114 -2.262245 -2.279328 0.562753 -10.873978 0.239138 1.206874 25.189805 0.609435 0.366502 9.742296 0.000000 0.000000 0.000000 5.958851 -0.439227 -31.143280 6.961988 -11.856566 0.723860 22.811822 -14.627606 5.316802 0.000000 0.000000 0.000000 -7.125000 0.000000 0.000000 -2.887235 24.215474 -1.450647 0.000000 0.000000 0.000000 -4.370784 1.075619 18.868447 -13.259690 -21.666584 -2.548398 -18.431046 45.391277 22.684697 0.000000 0.000000 0.000000 7.125000 0.000000 0.000000 11.024096 53.421713 -2.305350
0.517646 22.499806 -3.227777 -0.168227 -0.761435 10.790166 0.000000 0.000000 0.000000 -17.216184 -0.282305 -44.386774 4.048402 12.217105 36.515166 0.938031 2.094581 17.716160 0.004883 -0.449143 -1.234173 0.000000 0.000000 0.000000 18.202275 3.635454 -42.766991 -3.833632 -11.928321 35.488973 -0.889631 -7.584022 16.878596 -0.936958 -6.165652 17.265777 -2.808244 -0.117611 10.480817 1.462734 -0.395953 3.760112 3.147721 -0.217323 -1.927768 -2.285964 0.554454 -10.740458 0.259144 1.188964 25.325859 0.615507 0.358673 9.765317 0.000000 0.000000 0.000000 5.576113 0.085920 -30.543275 6.776982 -11.551633 0.686340 22.603801 -13.931774 5.214283 0.000000 0.000000 0.000000 -7.125000 0.000000 0.000000 -3.041998 24.335036 -1.520200 0.000000 0.000000 0.000000 -4.133230 1.583145 18.860982 -13.243936 -21.643536 -2.542524 -18.368978 45.296803 22.681460 0.000000 0.000000 0.000000 7.125000 0.000000 0.000000 11.085103 53.407048 -2.314310
0.524124 22.221949 -2.987460 -0.108558 -0.784285 10.877517 0.000000 0.000000 0.000000 -17.423164 -0.275278 -43.442907 3.285049 11.139319 32.754964 1.033105 2.088887 18.623457 0.006724 -0.528947 -1.453338 0.000000 0.000000 0.000000 17.904927 3.880722 -41.979603 -3.127665 -10.896224 31.933556 -0.981649 -8.067798 17.750552 -0.945263 -6.192017 17.342707 -2.706936 -0.139491 9.814871 1.433578 -0.400385 3.800129 3.052960 -0.226424 -1.522239 -2.279419 0.555230 -10.609483 0.282873 1.180867 25.586847 0.622604 0.355653 9.833536 0.000000 0.000000 0.000000 5.241822 0.582371 -29.745524 6.577760 -11.222317 0.646946 22.336418 -13.216440 5.109434 0.000000 0.000000 0.000000 -7.125000 0.000000 0.000000 -3.241557 24.458937 -1.610965 0.000000 0.000000 0.000000 -3.890384 1.985240 18.618613 -13.128475 -21.475107 -2.500092 -18.329500 45.503470 22.691171 0.000000 0.000000 0.000000 7.125000 0.000000 0.000000 11.128863 53.409630 -2.324379
0.531162 21.920089 -2.735826 -0.069241 -0.802929 10.836963 0.000000 0.000000 0.000000 -17.555650 -0.256523 -42.213469 2.631056 10.061849 29.186752 1.129940 2.425475 19.429931 0.007213 -0.547150 -1.503487 0.000000 0.000000 0.000000 17.492842 4.246282 -40.897113 -2.559892 -9.938283 28.783916 -1.029301 -8.832632 18.237689 -0.969737 -6.269390 17.568245 -2.563824 -0.171443 9.076547 1.401648 -0.414543 3.849568 2.932296 -0.240367 -1.066266 -2.273738 0.559491 -10.497204 0.313372 1.177878 25.991905 0.633754 0.354033 9.957493 0.000000 0.000000 0.000000 4.976067 1.065439 -28.832429 6.382048 -10.897798 0.609486 22.032398 -12.501691 5.002344 0.000000 0.000000 0.000000 -7.125000 0.000000 0.000000 -3.468882 24.586006 -1.714032 0.000000 0.000000 0.000000 -3.659520 2.292566 18.184978 -12.922464 -21.173394 -2.425320 -18.324687 45.958889 22.730079 0.000000 0.000000 0.000000 7.125000 0.000000 0.000000 11.149822 53.447839 -2.339252
0.538823 21.597119 -2.476466 -0.039382 -0.827824 10.659681 0.000000 0.000000 0.000000 -17.655832 -0.180259 -40.794760 2.092421 9.046252 25.947020 1.213020 3.040900 20.034503 0.008676 -0.600696 -1.650644 0.000000 0.000000 0.000000 16.972262 4.741099 -39.565073 -2.114810 -9.094938 26.097251 -1.024460 -9.870102 18.332607 -1.014407 -6.407619 17.971967 -2.391262 -0.203906 8.325101 1.366035 -0.429258 3.898301 2.791508 -0.253541 -0.603590 -2.289846 0.556214 -10.406541 0.356588 1.167075 26.517139 0.653185 0.346848 10.130104 0.000000 0.000000 0.000000 4.784565 1.572573 -27.960046 6.207734 -10.608086 0.576894 21.773520 -11.842594 4.952628 0.000000 0.000000 0.000000 -7.125000 0.000000 0.000000 -3.662754 24.649111 -1.804896 0.000000 0.000000 0.000000 -3.456394 2.565827 17.659755 -12.675584 -20.809882 -2.336893 -18.356347 46.508897 22.798829 0.000000 0.000000 0.000000 7.125000 0.000000 0.000000 11.146452 53.523074 -2.359142
0.547196 21.252856 -2.212306 -0.012256 -0.865778 10.336697 0.000000 0.000000 0.000000 -17.770519 0.012060 -39.277990 1.674851 8.150406 23.173351 1.277836 3.878616 20.441825 0.012212 -0.712174 -1.957223 0.000000 0.000000 0.000000 16.383744 5.328976 -38.039389 -1.784465 -8.400373 23.937830 -0.972381 -11.091199 18.115243 -1.085155 -6.620510 18.596102 -2.193725 -0.226148 7.609901 1.325630 -0.432145 3.930743 2.631493 -0.258884 -0.178182 -2.322020 0.535248 -10.331784 0.397067 1.136733 27.143922 0.673120 0.327787 10.344915 0.000000 0.000000 0.000000 4.680360 2.140885 -27.298428 6.066485 -10.372932 0.551195 21.697747 -11.334114 5.034578 0.000000 0.000000 0.000000 -7.125000 0.000000 0.000000 -3.718942 24.563981 -1.840018 0.000000 0.000000 0.000000 -3.291089 2.853247 17.104284 -12.418382 -20.429008 -2.246219 -18.431042 47.030638 22.867437 0.000000 0.000000 0.000000 7.125000 0.000000 0.000000 11.099782 53.605992 -2.371723
